<svg width="276" height="270" viewBox="0 0 276 270" fill="none" xmlns="http://www.w3.org/2000/svg">
<path d="M107.166 252.597H114.395L114.395 174.583H107.166L107.166 252.597Z" fill="#2360CC"/>
<path d="M142.453 254.1H79.1097V252.336C79.1097 251.559 79.4182 250.813 79.9675 250.264C80.5168 249.714 81.2617 249.406 82.0385 249.406H139.739C140.459 249.406 141.149 249.692 141.658 250.201C142.167 250.71 142.453 251.401 142.453 252.121V254.1V254.1Z" fill="#2360CC"/>
<path d="M67.1328 171.7C67.1427 173.888 68.0171 175.983 69.5653 177.528C71.1136 179.074 73.21 179.944 75.397 179.949H143.488C145.675 179.944 147.772 179.074 149.32 177.528C150.868 175.983 151.743 173.888 151.752 171.7V164.234C151.743 162.046 150.868 159.951 149.32 158.405C147.772 156.86 145.675 155.99 143.488 155.985H75.397C73.21 155.99 71.1136 156.86 69.5653 158.405C68.0171 159.951 67.1427 162.046 67.1328 164.234V171.7Z" fill="#2360CC"/>
<path d="M151.062 238.777C151.062 238.777 171.713 253.624 168.122 263.599C168.122 263.599 145.531 253.876 142.798 246.214C140.065 238.553 143.264 235.175 143.264 235.175L151.062 238.777Z" fill="url(#guyDeskLaptopPaint0)"/>
<path d="M147.955 226.375L144.578 236.108C144.32 236.822 144.31 237.602 144.548 238.323C144.787 239.044 145.261 239.664 145.894 240.083C146.759 240.597 147.705 240.959 148.692 241.156C149.537 241.355 150.424 241.269 151.215 240.911C152.007 240.554 152.657 239.944 153.066 239.178L157.105 231.591L147.955 226.375Z" fill="url(#guyDeskLaptopPaint1)"/>
<path d="M115.094 138.656C115.094 138.656 157.516 145.991 175.724 162.75C193.931 179.51 159.027 233.01 159.027 233.01C159.027 233.01 153.309 233.01 146.379 227.047C146.379 227.047 167.068 186.827 149.243 175.087C129.188 161.901 106.084 158.934 106.084 158.934L114.703 139.944L115.094 138.656Z" fill="url(#guyDeskLaptopPaint2)"/>
<path d="M164.541 258.103C159.999 256.004 147.136 247.026 144.953 246.634C142.771 246.242 139.021 248.781 139.021 248.781C139.021 248.781 138.088 250.414 139.086 253.279C142.108 256.918 148.805 263.87 157.816 266.455C164.448 268.322 169.084 266.586 171.966 264.505C170.087 261.764 167.528 259.558 164.541 258.103V258.103Z" fill="url(#guyDeskLaptopPaint3)"/>
<path d="M157.88 266.436C148.87 263.851 142.173 256.899 139.15 253.26C139.813 255.191 141.333 257.683 144.598 260.604C152.675 267.845 168.103 270.458 171.386 269.936C174.017 269.534 173.765 267.136 172.03 264.467C169.073 266.567 164.465 268.368 157.88 266.436Z" fill="url(#guyDeskLaptopPaint4)"/>
<path d="M135.186 242.416C135.242 243.667 137.797 247.95 139.29 250.348C139.636 250.914 140.122 251.382 140.699 251.709C141.277 252.035 141.928 252.209 142.592 252.215C143.513 252.228 144.432 252.118 145.325 251.888C145.966 251.696 146.506 251.257 146.824 250.667C147.142 250.077 147.213 249.385 147.022 248.743L144.103 238.795L135.186 242.416Z" fill="url(#guyDeskLaptopPaint5)"/>
<path d="M74.2691 125.983C74.2691 125.983 64.8482 151.105 74.2691 158.747C83.6899 166.39 106.16 174.994 111.178 190.214C116.196 205.434 124.722 235.007 136.12 245.486C136.12 245.486 144.133 244.712 147.127 241.53C147.127 241.53 140.597 197.372 136.353 186.043C132.622 176.235 127.175 162.069 116.709 154.156C113.706 151.888 114.228 148.296 115.618 144.824L118.155 138.469L74.2691 125.983Z" fill="url(#guyDeskLaptopPaint6)"/>
<path d="M172.515 106.284C156.714 107.217 161.639 82.0682 161.928 81.0884L137.947 97.9789C137.947 97.9789 139.216 111.435 159.149 118.509C163.541 120.125 168.3 120.468 172.879 119.498C171.385 115.239 171.258 110.619 172.515 106.284V106.284Z" fill="url(#guyDeskLaptopPaint7)"/>
<path d="M203.054 98.716C197.169 94.6287 190.499 98.716 190.499 98.716C182.627 103.849 176.806 106.032 172.516 106.284C171.264 110.61 171.391 115.219 172.88 119.47C181.694 117.604 188 111.211 190.742 107.945C191.217 107.378 191.893 107.016 192.628 106.936C193.364 106.856 194.102 107.064 194.687 107.516C195.909 108.449 197.103 109.802 196.879 111.202C196.46 113.946 199.678 114.813 199.892 113.815C200.107 112.816 198.801 106.928 198.801 106.928C198.801 106.928 205.181 113.33 207.671 115.784C210.162 118.238 213.268 115.784 213.268 115.784C213.268 115.784 208.94 102.794 203.054 98.716Z" fill="url(#guyDeskLaptopPaint8)"/>
<path d="M98.865 42.1934C98.865 42.1934 121.839 33.0109 164.606 68.2291C164.606 68.2291 168.178 75.6106 164.279 82.1708C160.38 88.7311 123.238 120.721 118.154 138.46C118.154 138.46 96.0294 145.636 73.1582 128.634C73.1582 128.634 75.173 79.2593 98.865 42.1934Z" fill="url(#guyDeskLaptopPaint9)"/>
<path d="M144.289 34L132.975 47.6804C132.422 48.3422 132.073 49.1498 131.968 50.0058C131.864 50.8618 132.01 51.7298 132.387 52.505C133.954 55.7058 137.676 60.353 145.94 59.7091C147.148 59.6174 148.31 59.2108 149.312 58.5297C150.313 57.8485 151.119 56.9167 151.649 55.8271L159.558 39.5151L144.289 34Z" fill="url(#guyDeskLaptopPaint10)"/>
<path d="M81.0686 100.778C78.4009 89.9437 105.423 65.7837 105.423 65.7837L98.8935 42.1929C98.8935 42.1929 40.5496 80.9385 55.4178 112.097C57.189 116.048 60.0534 119.409 63.6727 121.784C68.3364 109.167 75.7985 103.381 81.0686 100.778Z" fill="url(#guyDeskLaptopPaint11)"/>
<path d="M81.0487 99.2008C80.907 99.199 80.7699 99.1505 80.6586 99.0627C80.5472 98.975 80.468 98.8529 80.4331 98.7155C77.7095 87.6387 103.864 64.0852 104.983 63.0961C105.11 63.0039 105.265 62.9616 105.421 62.9774C105.577 62.9932 105.721 63.0659 105.826 63.1816C105.931 63.2973 105.99 63.4479 105.991 63.6043C105.992 63.7608 105.936 63.9121 105.832 64.0292C105.562 64.2719 79.1272 88.0586 81.6737 98.3982C81.6945 98.4797 81.699 98.5646 81.6868 98.6479C81.6746 98.7311 81.6459 98.8111 81.6025 98.8832C81.5591 98.9553 81.5018 99.018 81.434 99.0677C81.3661 99.1174 81.2891 99.1531 81.2073 99.1728L81.0487 99.2008Z" fill="url(#guyDeskLaptopPaint12)"/>
<path d="M121.997 99.8452C121.997 99.8452 89.9663 112.256 82.1404 102.925C81.6216 102.302 81.2544 101.567 81.0678 100.778C75.7977 103.382 68.3357 109.168 63.6719 121.784C80.5174 132.525 109.321 115.812 117.1 110.885C118.38 110.072 119.925 109.787 121.409 110.091C124.413 110.717 129.599 111.631 132.397 111.202C136.492 110.567 142.369 124.976 149.01 120.534C148.972 120.534 143.292 95.4872 121.997 99.8452Z" fill="url(#guyDeskLaptopPaint13)"/>
<path d="M168.905 13.9082C169.017 14.3468 166.256 44.2459 166.256 44.2459L149.168 42.3142L147.619 13.6096C147.619 13.6096 167.002 6.54546 168.905 13.9082Z" fill="url(#guyDeskLaptopPaint14)"/>
<path d="M152.022 19.5353L151.677 34.7275C151.666 34.9196 151.688 35.1122 151.742 35.2967C152.031 36.4539 153.346 40.3546 157.264 38.7682C160.818 37.3311 164.092 36.0713 166.489 36.5285C167.009 36.6241 167.474 36.9108 167.793 37.3321C168.112 37.7534 168.263 38.279 168.214 38.8055C167.802 43.541 167.019 48.2368 165.873 52.8498C165.733 53.3616 165.406 53.8023 164.957 54.0854C164.509 54.3686 163.97 54.4737 163.448 54.3803C160.183 53.8017 153.337 52.4019 148.095 49.985C147.747 49.8276 147.447 49.5788 147.229 49.265C147.01 48.9512 146.881 48.5841 146.854 48.2026C146.602 44.4046 145.782 32.8705 145.054 29.6883C144.373 26.7021 140.456 25.3024 138.767 24.8265C138.494 24.7515 138.24 24.6218 138.018 24.4454C137.797 24.2689 137.614 24.0493 137.48 23.8C136.547 22.0082 135.018 17.7903 140.278 15.4013C140.541 15.2861 140.777 15.1187 140.973 14.9094C141.169 14.7 141.32 14.4531 141.418 14.1835C141.516 13.9138 141.558 13.6272 141.541 13.3409C141.525 13.0546 141.451 12.7745 141.323 12.5178C140.269 10.3622 139.551 6.96539 143.571 4.61377C147.591 2.26216 151.117 4.15652 153.057 5.82691C153.441 6.14645 153.924 6.32142 154.424 6.32142C154.923 6.32142 155.406 6.14645 155.79 5.82691C156.057 5.61207 156.382 5.48285 156.723 5.45621C157.064 5.42956 157.406 5.50673 157.702 5.6776C157.967 5.79911 158.254 5.86393 158.545 5.86792C158.836 5.8719 159.125 5.81495 159.393 5.70072C159.661 5.5865 159.902 5.41752 160.101 5.20463C160.299 4.99173 160.452 4.73961 160.547 4.46446C161.349 2.24349 163.196 -0.201445 167.487 0.0131868C175.098 0.470445 176.814 8.63577 175.415 13.6936C174.016 18.7514 165.752 17.7809 161.424 15.7839C158.159 14.2629 154.41 16.6425 152.796 17.8743C152.547 18.0722 152.348 18.3253 152.213 18.6136C152.079 18.9018 152.013 19.2174 152.022 19.5353Z" fill="url(#guyDeskLaptopPaint15)"/>
<path d="M144.98 35.2221C144.98 35.2221 147.107 26.3103 143.721 24.5466C140.335 22.7828 135.783 24.3972 137.499 30.5002C139.626 38.087 144.98 35.2221 144.98 35.2221Z" fill="url(#guyDeskLaptopPaint16)"/>
<path d="M138.414 124.313H138.564L205.778 124.238C206.186 124.261 206.594 124.2 206.978 124.06C207.361 123.92 207.712 123.702 208.009 123.421C208.306 123.141 208.542 122.802 208.704 122.427C208.865 122.051 208.949 121.647 208.949 121.238C208.949 120.83 208.865 120.425 208.704 120.05C208.542 119.674 208.306 119.336 208.009 119.055C207.712 118.774 207.361 118.557 206.978 118.417C206.594 118.276 206.186 118.215 205.778 118.238L138.554 118.313C137.784 118.334 137.052 118.65 136.508 119.196C135.965 119.742 135.652 120.476 135.634 121.246C135.616 122.017 135.894 122.765 136.412 123.335C136.929 123.906 137.646 124.256 138.414 124.313V124.313Z" fill="url(#guyDeskLaptopPaint17)"/>
<path d="M266.201 63.4326H210.236C208.214 63.4315 206.234 64.0044 204.525 65.0848C202.816 66.1651 201.449 67.7085 200.582 69.5356L174.67 124.276H244.235C245.533 124.272 246.8 123.881 247.875 123.153C248.95 122.425 249.784 121.393 250.27 120.189L270.333 69.5356C270.601 68.8601 270.699 68.1295 270.62 67.4073C270.541 66.6851 270.287 65.9931 269.879 65.3916C269.472 64.7901 268.924 64.2972 268.283 63.9558C267.642 63.6144 266.927 63.4348 266.201 63.4326V63.4326Z" fill="url(#guyDeskLaptopPaint18)"/>
<path d="M226.765 91.5024C225.553 95.2351 226.448 98.9119 228.771 99.6584C231.093 100.405 233.947 97.96 235.16 94.1993C236.373 90.4386 235.477 86.7899 233.164 86.0433C230.851 85.2968 227.978 87.7417 226.765 91.5024Z" fill="url(#guyDeskLaptopPaint19)"/>
<path d="M257.125 268.125C257.509 268.124 257.889 268.048 258.244 267.901C258.582 267.77 258.889 267.571 259.147 267.317C259.406 267.064 259.61 266.76 259.748 266.425C259.885 266.09 259.954 265.731 259.949 265.369C259.944 265.006 259.865 264.649 259.718 264.318L200.488 131.321C200.173 130.645 199.607 130.119 198.911 129.852C198.215 129.586 197.443 129.601 196.757 129.893C196.421 130.026 196.114 130.225 195.856 130.479C195.598 130.733 195.394 131.036 195.256 131.37C195.117 131.705 195.048 132.064 195.051 132.425C195.054 132.787 195.13 133.145 195.274 133.477L254.532 266.502C254.76 266.995 255.127 267.411 255.587 267.699C256.048 267.988 256.582 268.136 257.125 268.125V268.125Z" fill="#6084A5"/>
<path d="M7.02533 268.125C7.57152 268.133 8.1081 267.981 8.56888 267.687C9.02966 267.394 9.39449 266.972 9.6184 266.473L68.8577 133.477C69.0021 133.145 69.0785 132.788 69.0822 132.427C69.086 132.065 69.0171 131.707 68.8796 131.373C68.7421 131.038 68.5389 130.735 68.282 130.481C68.025 130.227 67.7196 130.027 67.384 129.893C66.6987 129.598 65.9254 129.582 65.2285 129.849C64.5317 130.115 63.9664 130.644 63.6529 131.321L4.43227 264.318C4.28812 264.65 4.21222 265.007 4.20909 265.369C4.20595 265.731 4.27566 266.09 4.41405 266.424C4.55244 266.759 4.75668 267.062 5.0146 267.315C5.27253 267.569 5.57886 267.768 5.91535 267.901C6.26712 268.048 6.64425 268.124 7.02533 268.125V268.125Z" fill="#6084A5"/>
<path d="M190.396 268.125C190.942 268.133 191.479 267.981 191.939 267.687C192.4 267.394 192.765 266.972 192.989 266.473L252.228 133.477C252.373 133.145 252.449 132.788 252.453 132.427C252.457 132.065 252.388 131.707 252.25 131.373C252.113 131.038 251.909 130.735 251.652 130.481C251.396 130.227 251.09 130.027 250.755 129.893C250.069 129.598 249.296 129.582 248.599 129.849C247.902 130.115 247.337 130.644 247.023 131.321L187.803 264.318C187.658 264.649 187.582 265.006 187.578 265.368C187.575 265.729 187.643 266.088 187.781 266.422C187.918 266.756 188.122 267.059 188.379 267.313C188.636 267.568 188.941 267.767 189.277 267.901C189.632 268.048 190.012 268.124 190.396 268.125Z" fill="#6084A5"/>
<path d="M73.7653 268.125C74.1464 268.124 74.5235 268.048 74.8753 267.901C75.2118 267.768 75.5181 267.569 75.776 267.315C76.034 267.062 76.2382 266.759 76.3766 266.424C76.515 266.09 76.5847 265.731 76.5816 265.369C76.5784 265.007 76.5025 264.65 76.3584 264.318L17.119 131.321C16.8056 130.644 16.2403 130.115 15.5435 129.849C14.8466 129.582 14.0733 129.598 13.388 129.893C13.0515 130.026 12.7452 130.225 12.4873 130.479C12.2293 130.733 12.0251 131.036 11.8867 131.37C11.7483 131.705 11.6786 132.063 11.6817 132.425C11.6849 132.787 11.7608 133.145 11.9049 133.477L71.1349 266.501C71.3713 266.996 71.745 267.412 72.2114 267.7C72.6779 267.988 73.2173 268.136 73.7653 268.125V268.125Z" fill="#6084A5"/>
<path d="M0.0767333 127.216C0.00152617 126.79 0.012303 126.353 0.108422 125.932C0.204542 125.51 0.384056 125.112 0.636385 124.761C0.875278 124.44 1.18616 124.178 1.54413 123.999C1.90209 123.819 2.29719 123.725 2.69778 123.726H272.19C272.721 123.736 273.241 123.888 273.695 124.165C274.149 124.442 274.521 124.834 274.773 125.303C275.051 125.8 275.212 126.354 275.246 126.923C275.28 127.491 275.186 128.06 274.969 128.587L272.05 135.642C271.762 136.405 271.253 137.065 270.589 137.537C269.924 138.01 269.134 138.272 268.319 138.292H4.54463C3.78935 138.259 3.07013 137.96 2.51381 137.448C1.95749 136.935 1.59981 136.243 1.50385 135.493L0.0767333 127.216Z" fill="#6084A5"/>
<defs>
<linearGradient id="guyDeskLaptopPaint0" x1="7458.11" y1="12778.4" x2="7057.58" y2="13522" gradientUnits="userSpaceOnUse">
<stop stop-color="#2B3582"/>
<stop offset="1" stop-color="#150E42"/>
</linearGradient>
<linearGradient id="guyDeskLaptopPaint1" x1="144.382" y1="233.775" x2="157.105" y2="233.775" gradientUnits="userSpaceOnUse">
<stop stop-color="#F9B776"/>
<stop offset="1" stop-color="#F47960"/>
</linearGradient>
<linearGradient id="guyDeskLaptopPaint2" x1="126.828" y1="200.19" x2="180.784" y2="124.607" gradientUnits="userSpaceOnUse">
<stop stop-color="#2B3582"/>
<stop offset="0.23" stop-color="#252A70"/>
<stop offset="0.73" stop-color="#19164F"/>
<stop offset="1" stop-color="#150E42"/>
</linearGradient>
<linearGradient id="guyDeskLaptopPaint3" x1="8961.27" y1="9921.5" x2="8175.47" y2="11580.1" gradientUnits="userSpaceOnUse">
<stop stop-color="#2B3582"/>
<stop offset="1" stop-color="#150E42"/>
</linearGradient>
<linearGradient id="guyDeskLaptopPaint4" x1="139.104" y1="261.64" x2="173.299" y2="261.64" gradientUnits="userSpaceOnUse">
<stop stop-color="#53D8FF"/>
<stop offset="1" stop-color="#3840F7"/>
</linearGradient>
<linearGradient id="guyDeskLaptopPaint5" x1="2961.48" y1="6472.26" x2="3114.34" y2="6472.26" gradientUnits="userSpaceOnUse">
<stop stop-color="#F9B776"/>
<stop offset="1" stop-color="#F47960"/>
</linearGradient>
<linearGradient id="guyDeskLaptopPaint6" x1="16002.1" y1="54656.4" x2="16590.9" y2="41734.7" gradientUnits="userSpaceOnUse">
<stop stop-color="#2B3582"/>
<stop offset="1" stop-color="#150E42"/>
</linearGradient>
<linearGradient id="guyDeskLaptopPaint7" x1="181.078" y1="139.645" x2="151.77" y2="93.7917" gradientUnits="userSpaceOnUse">
<stop stop-color="#FDF53F"/>
<stop offset="1" stop-color="#D93C65"/>
</linearGradient>
<linearGradient id="guyDeskLaptopPaint8" x1="11645.3" y1="7259.66" x2="13502.6" y2="7259.66" gradientUnits="userSpaceOnUse">
<stop stop-color="#F9B776"/>
<stop offset="1" stop-color="#F47960"/>
</linearGradient>
<linearGradient id="guyDeskLaptopPaint9" x1="23788.4" y1="26133.3" x2="14078.7" y2="32772.9" gradientUnits="userSpaceOnUse">
<stop stop-color="#FDF53F"/>
<stop offset="1" stop-color="#D93C65"/>
</linearGradient>
<linearGradient id="guyDeskLaptopPaint10" x1="6573.03" y1="6519.15" x2="7391.22" y2="6519.15" gradientUnits="userSpaceOnUse">
<stop stop-color="#F9B776"/>
<stop offset="1" stop-color="#F47960"/>
</linearGradient>
<linearGradient id="guyDeskLaptopPaint11" x1="12672" y1="19482.3" x2="6138.97" y2="22612.5" gradientUnits="userSpaceOnUse">
<stop stop-color="#FDF53F"/>
<stop offset="1" stop-color="#D93C65"/>
</linearGradient>
<linearGradient id="guyDeskLaptopPaint12" x1="4428.27" y1="10554.2" x2="6687.72" y2="10462.1" gradientUnits="userSpaceOnUse">
<stop stop-color="#FDF53F"/>
<stop offset="1" stop-color="#D93C65"/>
</linearGradient>
<linearGradient id="guyDeskLaptopPaint13" x1="18238.1" y1="8358.05" x2="17080.8" y2="14963.4" gradientUnits="userSpaceOnUse">
<stop stop-color="#F9B776"/>
<stop offset="1" stop-color="#F47960"/>
</linearGradient>
<linearGradient id="guyDeskLaptopPaint14" x1="2368.24" y1="-40479.6" x2="1401.43" y2="-39131.1" gradientUnits="userSpaceOnUse">
<stop stop-color="#F9B776"/>
<stop offset="1" stop-color="#F47960"/>
</linearGradient>
<linearGradient id="guyDeskLaptopPaint15" x1="5609.84" y1="-66055" x2="7293.46" y2="-66489.3" gradientUnits="userSpaceOnUse">
<stop stop-color="#2B3582"/>
<stop offset="1" stop-color="#150E42"/>
</linearGradient>
<linearGradient id="guyDeskLaptopPaint16" x1="1190.28" y1="-12965.3" x2="1453.87" y2="-13288.5" gradientUnits="userSpaceOnUse">
<stop stop-color="#F9B776"/>
<stop offset="1" stop-color="#F47960"/>
</linearGradient>
<linearGradient id="guyDeskLaptopPaint17" x1="-820583" y1="-35569.2" x2="-820263" y2="-34281.2" gradientUnits="userSpaceOnUse">
<stop stop-color="#2B3582"/>
<stop offset="1" stop-color="#150E42"/>
</linearGradient>
<linearGradient id="guyDeskLaptopPaint18" x1="-1.07625e+06" y1="16984.6" x2="-1.07404e+06" y2="20670.9" gradientUnits="userSpaceOnUse">
<stop stop-color="#2B3582"/>
<stop offset="1" stop-color="#150E42"/>
</linearGradient>
<linearGradient id="guyDeskLaptopPaint19" x1="-96614.9" y1="4097.51" x2="-96334.2" y2="4386" gradientUnits="userSpaceOnUse">
<stop stop-color="#53D8FF"/>
<stop offset="1" stop-color="#3840F7"/>
</linearGradient>
</defs>
</svg>
